HIERARCHY
ROOT Junyuan_V1:Solving:Hips
{
	OFFSET 0.000000 0.000000 0.000000
	CHANNELS 6 Xposition Yposition Zposition Xrotation Yrotation Zrotation
	JOINT Junyuan_V1:Solving:Spine
	{
		OFFSET 0.000000 -11.180205 2.228564
		CHANNELS 6 Xposition Yposition Zposition Xrotation Yrotation Zrotation
		JOINT Junyuan_V1:Solving:Spine1
		{
			OFFSET 0.000000 -8.682996 1.531049
			CHANNELS 6 Xposition Yposition Zposition Xrotation Yrotation Zrotation
			JOINT Junyuan_V1:Solving:Spine2
			{
				OFFSET 0.000000 -8.783394 0.768450
				CHANNELS 6 Xposition Yposition Zposition Xrotation Yrotation Zrotation
				JOINT Junyuan_V1:Solving:Spine3
				{
					OFFSET 0.000000 -8.816944 0.000000
					CHANNELS 6 Xposition Yposition Zposition Xrotation Yrotation Zrotation
					JOINT Junyuan_V1:Solving:Neck
					{
						OFFSET 0.000000 -11.336071 -1.133605
						CHANNELS 6 Xposition Yposition Zposition Xrotation Yrotation Zrotation
						JOINT Junyuan_V1:Solving:Neck1
						{
							OFFSET 0.000000 -7.643246 -0.668695
							CHANNELS 6 Xposition Yposition Zposition Xrotation Yrotation Zrotation
							JOINT Junyuan_V1:Solving:Head
							{
								OFFSET 0.000000 -7.555870 -1.332303
								CHANNELS 6 Xposition Yposition Zposition Xrotation Yrotation Zrotation
								JOINT Junyuan_V1:Solving:HeadEnd
								{
									OFFSET 0.000000 -9.728081 0.000002
									CHANNELS 6 Xposition Yposition Zposition Xrotation Yrotation Zrotation
									End Site
									{
										OFFSET 0.000000 -9.728081 0.000002
									}
								}
							}
						}
					}
					JOINT Junyuan_V1:Solving:RightShoulder
					{
						OFFSET 0.000000 -8.097195 -5.270916
						CHANNELS 6 Xposition Yposition Zposition Xrotation Yrotation Zrotation
						JOINT Junyuan_V1:Solving:RightArm
						{
							OFFSET -20.762394 -0.000008 0.000000
							CHANNELS 6 Xposition Yposition Zposition Xrotation Yrotation Zrotation
							JOINT Junyuan_V1:Solving:RightForeArm
							{
								OFFSET -29.048946 -0.000008 0.000000
								CHANNELS 6 Xposition Yposition Zposition Xrotation Yrotation Zrotation
								JOINT Junyuan_V1:Solving:RightHand
								{
									OFFSET -22.031235 -0.000008 0.000000
									CHANNELS 6 Xposition Yposition Zposition Xrotation Yrotation Zrotation
									JOINT Junyuan_V1:Solving:RightHandThumb1
									{
										OFFSET -3.579254 2.890213 -2.661497
										CHANNELS 6 Xposition Yposition Zposition Xrotation Yrotation Zrotation
										End Site
										{
											OFFSET -5.229485 0.000000 -5.277840
										}
									}
									JOINT Junyuan_V1:Solving:RightHandMiddle1
									{
										OFFSET -9.544678 -0.000004 0.061184
										CHANNELS 6 Xposition Yposition Zposition Xrotation Yrotation Zrotation
										End Site
										{
											OFFSET -7.429878 -0.000004 0.000000
										}
									}
								}
							}
						}
					}
					JOINT Junyuan_V1:Solving:LeftShoulder
					{
						OFFSET 0.000000 -8.097195 -5.270916
						CHANNELS 6 Xposition Yposition Zposition Xrotation Yrotation Zrotation
						JOINT Junyuan_V1:Solving:LeftArm
						{
							OFFSET 20.762394 -0.000008 0.000000
							CHANNELS 6 Xposition Yposition Zposition Xrotation Yrotation Zrotation
							JOINT Junyuan_V1:Solving:LeftForeArm
							{
								OFFSET 29.048946 -0.000008 0.000000
								CHANNELS 6 Xposition Yposition Zposition Xrotation Yrotation Zrotation
								JOINT Junyuan_V1:Solving:LeftHand
								{
									OFFSET 22.031235 -0.000008 0.000000
									CHANNELS 6 Xposition Yposition Zposition Xrotation Yrotation Zrotation
									JOINT Junyuan_V1:Solving:LeftHandThumb1
									{
										OFFSET 3.579254 2.890213 -2.661497
										CHANNELS 6 Xposition Yposition Zposition Xrotation Yrotation Zrotation
										End Site
										{
											OFFSET 5.229485 0.000000 -5.277840
										}
									}
									JOINT Junyuan_V1:Solving:LeftHandMiddle1
									{
										OFFSET 9.544678 -0.000004 0.061184
										CHANNELS 6 Xposition Yposition Zposition Xrotation Yrotation Zrotation
										End Site
										{
											OFFSET 7.429878 -0.000004 0.000000
										}
									}
								}
							}
						}
					}
				}
			}
		}
	}
	JOINT Junyuan_V1:Solving:RightUpLeg
	{
		OFFSET -10.825166 0.000000 0.000000
		CHANNELS 6 Xposition Yposition Zposition Xrotation Yrotation Zrotation
		JOINT Junyuan_V1:Solving:RightLeg
		{
			OFFSET 0.000000 43.678444 -0.000006
			CHANNELS 6 Xposition Yposition Zposition Xrotation Yrotation Zrotation
			JOINT Junyuan_V1:Solving:RightFoot
			{
				OFFSET 0.000000 36.488441 -0.000006
				CHANNELS 6 Xposition Yposition Zposition Xrotation Yrotation Zrotation
				JOINT Junyuan_V1:Solving:RightForeFoot
				{
					OFFSET 0.000000 3.967834 -0.000000
					CHANNELS 6 Xposition Yposition Zposition Xrotation Yrotation Zrotation
					JOINT Junyuan_V1:Solving:RightToeBase
					{
						OFFSET 0.000000 0.000000 -15.539299
						CHANNELS 6 Xposition Yposition Zposition Xrotation Yrotation Zrotation
						JOINT Junyuan_V1:Solving:RightToeBaseEnd
						{
							OFFSET 0.000000 0.000000 -3.486985
							CHANNELS 6 Xposition Yposition Zposition Xrotation Yrotation Zrotation
							End Site
							{
								OFFSET 0.000000 -3.486992 0.000000
							}
						}
					}
				}
			}
		}
	}
	JOINT Junyuan_V1:Solving:LeftUpLeg
	{
		OFFSET 10.825166 0.000000 0.000000
		CHANNELS 6 Xposition Yposition Zposition Xrotation Yrotation Zrotation
		JOINT Junyuan_V1:Solving:LeftLeg
		{
			OFFSET 0.000000 43.678444 -0.000006
			CHANNELS 6 Xposition Yposition Zposition Xrotation Yrotation Zrotation
			JOINT Junyuan_V1:Solving:LeftFoot
			{
				OFFSET 0.000000 36.488441 -0.000006
				CHANNELS 6 Xposition Yposition Zposition Xrotation Yrotation Zrotation
				JOINT Junyuan_V1:Solving:LeftForeFoot
				{
					OFFSET 0.000000 3.967834 -0.000000
					CHANNELS 6 Xposition Yposition Zposition Xrotation Yrotation Zrotation
					JOINT Junyuan_V1:Solving:LeftToeBase
					{
						OFFSET 0.000000 0.000000 -15.539299
						CHANNELS 6 Xposition Yposition Zposition Xrotation Yrotation Zrotation
						JOINT Junyuan_V1:Solving:LeftToeBaseEnd
						{
							OFFSET 0.000000 0.000000 -3.974441
							CHANNELS 6 Xposition Yposition Zposition Xrotation Yrotation Zrotation
							End Site
							{
								OFFSET 0.000000 -3.974442 0.000000
							}
						}
					}
				}
			}
		}
	}
}
MOTION
Frames: 4
Frame Time: 0.041667
-36.747162 -23.971504 -82.647369 53.774052 -174.117969 -2.425936 0.000000 -11.180224 2.228574 13.510878 1.089941 0.478942 0.000002 -8.683001 1.531052 15.113781 0.158171 -0.126597 -0.000002 -8.783410 0.768432 21.748939 -6.489289 -6.810452 -0.000008 -8.816936 -0.000002 -7.360809 -1.127863 0.484440 0.000002 -11.336079 -1.133615 -40.858854 -9.490733 1.843280 -0.000004 -7.643218 -0.668701 13.039117 -2.004599 0.548200 0.000005 -7.555887 -1.332301 3.504916 -0.115286 -0.040634 -0.000001 -9.728073 0.000017 -0.000006 -0.000001 0.000001 -0.000007 -8.097202 -5.270931 0.000004 4.240335 25.584825 -20.762390 -0.000000 -0.000006 -83.517948 -19.800937 -96.180231 -29.048952 -0.000007 0.000001 -41.434759 -13.757534 -11.855219 -22.031202 -0.000012 0.000006 3.623707 -8.057082 24.315629 -3.579274 2.890202 -2.661500 0.000001 -0.000000 0.000004 -9.544678 -0.000016 0.061166 0.000000 0.000005 0.000000 -0.000004 -8.097202 -5.270931 -0.000008 -11.290778 -14.598807 20.762400 0.000009 -0.000003 -78.824898 27.346759 95.682720 29.048946 0.000002 0.000004 -59.835012 8.531722 14.319598 22.031223 -0.000022 -0.000006 3.195775 7.316361 -23.674863 3.579268 2.890202 -2.661504 -0.000000 0.000000 -0.000002 9.544696 -0.000017 0.061187 -0.000001 -0.000003 0.000003 -10.825164 -0.000008 -0.000002 -67.978612 12.482658 3.964093 -0.000008 43.678448 -0.000003 38.503552 0.000003 0.000002 -0.000004 36.488419 -0.000007 0.931840 8.162196 0.531101 0.000000 3.967827 0.000002 0.000000 0.000002 -0.000000 0.000006 -0.000019 -15.539296 8.133340 0.000002 -0.000001 0.000005 -0.000008 -3.486988 0.000001 -0.000001 -0.000000 10.825167 -0.000019 0.000016 -75.299653 -26.085990 -20.452225 -0.000010 43.678444 -0.000002 40.584800 0.000005 0.000001 -0.000004 36.488415 -0.000007 6.544365 10.694536 6.589825 -0.000002 3.967827 0.000004 0.000001 -0.000000 -0.000000 0.000004 0.000026 -15.539298 -1.325403 -0.000003 0.000002 0.000015 -0.000008 -3.974440 -0.000001 -0.000001 0.000002 
-36.869751 -23.933826 -82.716400 53.780356 -174.136110 -2.392099 -0.000004 -11.180210 2.228574 13.542144 1.045371 0.487234 0.000006 -8.683019 1.531051 15.061867 0.162249 -0.105874 -0.000004 -8.783399 0.768449 21.689483 -6.456883 -6.703242 -0.000006 -8.816937 -0.000001 -7.273001 -1.121575 0.449458 -0.000005 -11.336085 -1.133624 -40.878703 -9.466557 1.852355 -0.000003 -7.643243 -0.668686 12.917735 -1.986422 0.543174 0.000002 -7.555877 -1.332294 3.565323 -0.114773 -0.037994 0.000005 -9.728081 0.000017 -0.000002 -0.000000 0.000001 -0.000000 -8.097210 -5.270930 0.000012 4.273201 25.631437 -20.762388 0.000006 -0.000016 -83.503864 -19.674044 -96.241423 -29.048956 -0.000002 0.000001 -41.332070 -13.951887 -11.972579 -22.031233 -0.000013 -0.000019 3.624033 -8.038928 24.365756 -3.579279 2.890210 -2.661515 0.000002 -0.000010 0.000006 -9.544692 -0.000004 0.061182 0.000001 -0.000002 0.000001 -0.000000 -8.097202 -5.270929 0.000001 -11.286264 -14.603527 20.762392 0.000001 0.000016 -78.912570 27.504007 95.588456 29.048943 -0.000005 -0.000006 -59.905267 8.583904 14.441948 22.031242 -0.000007 -0.000008 3.160692 7.207921 -23.754807 3.579266 2.890225 -2.661479 -0.000005 -0.000005 -0.000004 9.544692 0.000009 0.061194 -0.000001 -0.000004 -0.000001 -10.825178 -0.000008 0.000007 -67.836804 12.350192 3.973253 0.000005 43.678448 -0.000002 38.165970 0.000002 0.000001 0.000007 36.488419 -0.000004 1.150633 8.286614 0.460147 -0.000004 3.967827 0.000001 0.000002 0.000001 -0.000000 -0.000005 0.000014 -15.539307 8.023504 0.000001 -0.000000 -0.000004 -0.000007 -3.486984 0.000001 0.000003 0.000001 10.825165 -0.000013 0.000009 -75.686590 -26.139812 -21.020776 -0.000001 43.678440 0.000004 40.996797 0.000003 -0.000001 -0.000004 36.488441 -0.000024 6.803344 12.292268 8.005921 -0.000000 3.967834 0.000007 -0.000001 0.000002 -0.000001 -0.000004 -0.000002 -15.539295 -1.234002 0.000001 -0.000002 0.000001 -0.000007 -3.974441 0.000001 -0.000001 0.000001 
-37.005627 -23.911243 -82.767883 53.839776 -174.142845 -2.361379 0.000003 -11.180192 2.228568 13.605535 0.965318 0.478011 0.000003 -8.682994 1.531024 15.076277 0.177462 -0.092225 0.000003 -8.783399 0.768455 21.563460 -6.387377 -6.606438 -0.000003 -8.816935 0.000004 -7.211206 -1.107322 0.444333 0.000002 -11.336078 -1.133628 -40.902820 -9.446923 1.828737 -0.000008 -7.643253 -0.668681 12.898700 -1.997384 0.595498 0.000007 -7.555871 -1.332288 3.591153 -0.115704 -0.030229 -0.000002 -9.728065 0.000011 -0.000003 -0.000001 0.000000 -0.000002 -8.097210 -5.270923 0.000010 4.301078 25.656048 -20.762386 0.000001 -0.000011 -83.508017 -19.637018 -96.340904 -29.048944 -0.000008 -0.000008 -41.480087 -14.033294 -12.100054 -22.031227 -0.000020 0.000007 3.720195 -8.203709 24.497495 -3.579265 2.890217 -2.661500 0.000007 -0.000003 0.000006 -9.544685 0.000007 0.061182 0.000005 0.000001 0.000000 -0.000001 -8.097206 -5.270922 -0.000003 -11.307417 -14.646434 20.762394 0.000002 -0.000004 -78.989300 27.057376 95.581483 29.048948 -0.000019 0.000003 -59.673252 8.623139 14.375846 22.031206 -0.000007 -0.000006 3.129381 7.123108 -23.792865 3.579241 2.890218 -2.661500 0.000003 0.000002 -0.000007 9.544688 0.000006 0.061191 -0.000001 0.000003 0.000003 -10.825166 0.000004 0.000003 -67.647013 12.188722 3.992083 0.000005 43.678440 -0.000007 37.861941 0.000004 0.000003 -0.000005 36.488438 0.000009 1.288850 8.441681 0.297472 0.000010 3.967827 0.000003 0.000002 0.000003 -0.000000 0.000005 -0.000004 -15.539301 7.993582 -0.000001 0.000000 0.000007 0.000000 -3.486986 0.000001 -0.000004 0.000001 10.825165 0.000027 -0.000004 -75.901304 -26.145727 -21.570777 0.000005 43.678452 0.000003 41.310678 0.000000 0.000003 0.000010 36.488445 -0.000007 6.765050 13.824687 9.895179 0.000003 3.967843 -0.000008 0.000002 0.000002 0.000000 0.000003 -0.000008 -15.539296 -1.447088 -0.000001 -0.000002 -0.000014 0.000000 -3.974453 0.000000 0.000003 -0.000000 
-37.149780 -23.902184 -82.806442 53.934510 -174.148322 -2.327840 -0.000003 -11.180208 2.228574 13.782244 0.872979 0.439935 -0.000001 -8.682963 1.531053 15.246760 0.209946 -0.108671 -0.000001 -8.783384 0.768476 21.092749 -6.256208 -6.488924 -0.000005 -8.816951 0.000006 -7.257800 -1.063235 0.479926 -0.000003 -11.336064 -1.133617 -41.000410 -9.531350 1.792479 -0.000003 -7.643251 -0.668689 13.367821 -1.982612 0.600825 0.000008 -7.555876 -1.332314 3.455107 -0.112275 -0.037744 0.000003 -9.728081 0.000004 -0.000006 -0.000000 0.000001 0.000000 -8.097191 -5.270908 0.000009 4.179037 25.612853 -20.762396 -0.000011 -0.000004 -83.178187 -19.521550 -96.455467 -29.048956 -0.000008 -0.000004 -41.286267 -14.300458 -12.237639 -22.031239 -0.000025 -0.000006 3.609571 -8.008618 24.360244 -3.579267 2.890206 -2.661486 0.000001 -0.000007 0.000003 -9.544686 -0.000003 0.061201 0.000000 0.000002 -0.000002 0.000004 -8.097198 -5.270909 -0.000004 -11.352113 -14.545877 20.762407 -0.000006 -0.000027 -78.883405 27.069479 95.528720 29.048937 -0.000003 -0.000018 -59.794515 8.581536 14.376713 22.031233 -0.000004 0.000003 3.164416 7.193145 -23.822921 3.579252 2.890205 -2.661483 0.000004 0.000005 -0.000003 9.544702 -0.000015 0.061181 0.000004 -0.000003 0.000001 -10.825174 -0.000010 0.000005 -67.440434 12.030624 4.025051 0.000002 43.678440 -0.000005 37.618906 0.000003 0.000001 0.000002 36.488422 -0.000013 1.350469 8.637564 0.027817 -0.000006 3.967819 -0.000006 0.000002 -0.000002 0.000000 -0.000007 0.000007 -15.539310 7.838039 -0.000003 -0.000000 0.000006 0.000000 -3.486987 0.000001 -0.000003 0.000000 10.825171 -0.000004 0.000001 -75.980274 -26.039219 -22.093908 0.000003 43.678440 -0.000005 41.600288 0.000000 0.000002 -0.000007 36.488434 -0.000001 6.484050 15.291363 12.125367 0.000004 3.967827 -0.000012 -0.000003 -0.000000 0.000000 -0.000001 -0.000000 -15.539301 -1.700332 -0.000003 -0.000003 -0.000003 -0.000008 -3.974441 -0.000000 0.000002 -0.000003 
